<?xml version="1.0" encoding="UTF-8"?>
<!DOCTYPE svg PUBLIC "-//W3C//DTD SVG 1.1//EN" "http://www.w3.org/Graphics/SVG/1.1/DTD/svg11.dtd">
<!-- Creator: CorelDRAW X8 -->
<svg xmlns="http://www.w3.org/2000/svg" xml:space="preserve" width="2923px" height="1444px" version="1.1" style="shape-rendering:geometricPrecision; text-rendering:geometricPrecision; image-rendering:optimizeQuality; fill-rule:evenodd; clip-rule:evenodd"
viewBox="0 0 532885 263383"
 xmlns:xlink="http://www.w3.org/1999/xlink">
 <defs>
  <style type="text/css">
   <![CDATA[
    .fil1 {fill:none}
    .fil0 {fill:#322C2B}
   ]]>
  </style>
 </defs>
 <g id="图层_x0020_1">
  <metadata id="CorelCorpID_0Corel-Layer"/>
  <path class="fil0" d="M521927 40l-342456 0 -8 -40 -22761 0 8 40 -145751 0c-6054,0 -10959,6326 -10959,14135l0 235073c0,7811 4905,14135 10959,14135l510968 0c6055,0 10958,-6326 10958,-14135l0 -235073c0,-7810 -4904,-14135 -10958,-14135zm3983 246410c0,5555 -3507,10078 -7813,10078l-195473 1 0 438 -136380 0 0 -438 -171115 0c-4308,0 -7815,-4524 -7815,-10078l0 -208105c0,-5555 3507,-10078 7815,-10078l502967 0c4312,0 7814,4523 7814,10078l0 208104 0 0z"/>
  <rect class="fil0" x="12853" y="209290" width="507642" height="42128"/>
  <g id="_1755188495392">
   <path class="fil0" d="M314811 146525l-120753 0c-1287,0 -2334,1047 -2334,2335l0 38559c0,1282 1047,2334 2334,2334l120753 0c1288,0 2334,-1047 2334,-2334l0 -38559c0,-1288 -1047,-2335 -2334,-2335zm-77120 32982l-22833 0c-6548,0 -11874,-5326 -11874,-11875 0,-6542 5326,-11869 11874,-11869l22833 0c6548,0 11874,5327 11874,11869 0,6548 -5325,11875 -11874,11875zm56829 0l-22834 0c-6548,0 -11874,-5326 -11874,-11875 0,-6542 5326,-11869 11874,-11869l22834 0c6547,0 11874,5327 11874,11869 -5,6548 -5332,11875 -11874,11875z"/>
   <path class="fil0" d="M314811 113039l-120753 0c-1287,0 -2334,1047 -2334,2335l0 14208c0,1282 1047,2334 2334,2334l120753 0c1288,0 2334,-1047 2334,-2334l0 -14209c0,-1287 -1047,-2334 -2334,-2334z"/>
   <path class="fil0" d="M314811 80568l-120753 0c-1287,0 -2334,1047 -2334,2334l0 14208c0,1283 1047,2334 2334,2334l120753 0c1288,0 2334,-1047 2334,-2334l0 -14209c0,-1286 -1047,-2333 -2334,-2333z"/>
   <path class="fil0" d="M464512 97253c1206,44 2132,-772 2208,-2043 60,-981 12,-1967 12,-2954 17,0 26,0 44,0 0,-739 33,-1479 -11,-2219 -28,-510 -89,-1042 -264,-1513 -307,-833 -981,-1260 -1863,-1260 -866,0 -1534,417 -1846,1227 -175,449 -269,954 -279,1436 -34,1562 -17,3129 -12,4696 0,269 27,543 77,805 187,1058 970,1792 1934,1825z"/>
   <path class="fil0" d="M448341 96568c1091,33 1962,-707 2039,-1813 60,-806 11,-1622 11,-2439l0 0c0,-839 50,-1677 -11,-2509 -77,-1097 -920,-1804 -2022,-1781 -1129,21 -1957,756 -1978,1868 -39,1589 -39,3179 0,4767 27,1112 855,1874 1961,1907z"/>
   <path class="fil0" d="M314811 202340l-120753 0c-1287,0 -2334,1047 -2334,2334l0 9095 125421 0 0 -9095c0,-1287 -1047,-2334 -2334,-2334z"/>
   <path class="fil0" d="M194058 66967l120753 0c1288,0 2334,-1047 2334,-2333l0 -16544 -125421 0 0 16544c0,1286 1047,2333 2334,2333z"/>
   <path class="fil0" d="M415087 90651c614,0 1233,-11 1846,5 263,6 351,-87 329,-340 -33,-389 -28,-789 -82,-1177 -154,-1030 -1009,-1781 -2023,-1813 -1020,-33 -1928,668 -2125,1687 -83,433 -67,882 -105,1321 -22,242 71,329 313,323 614,-12 1233,-6 1847,-6z"/>
   <path class="fil0" d="M518096 47762l-195472 0 0 16877c0,4308 -3506,7814 -7813,7814l-120753 0c-4306,0 -7813,-3506 -7813,-7814l0 -16877 -171116 0c-1288,0 -2335,1047 -2335,2333l0 161341c0,1282 1047,2333 2335,2333l171120 0 0 -9096c0,-4306 3507,-7814 7815,-7814l120752 0c4307,0 7814,3508 7814,7814l0 9096 195472 0c1287,0 2334,-1047 2334,-2333l0 -161345c-6,-1282 -1052,-2329 -2340,-2329zm-356499 116999c0,3244 -2635,5879 -5879,5879l-28154 1 0 28158c0,3244 -2636,5880 -5880,5880l-43984 0c-3244,0 -5880,-2636 -5880,-5880l0 -28158 -28159 0c-3244,0 -5880,-2636 -5880,-5880l0 -43984c0,-3244 2636,-5879 5880,-5879l28153 0 0 -28154c0,-3244 2636,-5880 5880,-5880l43984 1c3244,0 5879,2635 5879,5879l0 28154 28154 0c3244,0 5880,2635 5880,5879l0 43984 6 0zm161027 22659c0,4307 -3506,7814 -7813,7814l-120753 0c-4306,0 -7813,-3507 -7813,-7815l0 -38559c0,-4307 3507,-7814 7813,-7814l120753 0c4308,0 7814,3507 7814,7814l0 38560 -1 0zm0 -57843c0,4308 -3506,7814 -7813,7814l-120753 0c-4306,0 -7813,-3506 -7813,-7814l0 -14208c0,-4308 3507,-7815 7813,-7815l120753 0c4308,0 7814,3507 7814,7815l0 14208 -1 0zm0 -32472c0,4307 -3506,7814 -7813,7814l-120753 0c-4306,0 -7813,-3507 -7813,-7814l0 -14209c0,-4307 3507,-7814 7813,-7814l120753 0c4308,0 7814,3507 7814,7814l0 14209 -1 0zm136628 -9239c2969,-2608 7857,-2630 10805,-49 2910,2543 2844,6614 -153,9052 -1524,1238 -3288,1786 -5408,1791 -1901,-21 -3759,-630 -5311,-2033 -2718,-2448 -2679,-6350 67,-8761zm-17206 970c614,-871 1392,-1556 2350,-2038 949,-476 1951,-653 3009,-586 1068,66 2016,488 2991,1020 0,-1102 0,-2133 0,-3162 0,-1035 0,-2071 0,-3145 1699,0 3354,0 5036,0 0,5698 0,11380 0,17090 -1671,0 -3332,0 -5014,0 -17,-191 -32,-378 -55,-618 -1737,1008 -3534,1266 -5414,618 -1238,-428 -2214,-1215 -2964,-2285 -1435,-2022 -1408,-4818 61,-6894zm-17787 -2142c1677,0 3333,0 5047,0 0,362 0,718 0,1190 198,-165 302,-252 411,-340 2487,-2077 6346,-1771 8339,663 702,854 1113,1846 1140,2942 49,2220 33,4433 39,6653 0,60 -17,121 -28,208 -1660,0 -3315,0 -5014,0 -11,-143 -27,-302 -27,-455 0,-2220 0,-4438 0,-6653 0,-1173 -548,-1984 -1567,-2329 -1030,-345 -2192,0 -2854,855 -307,394 -439,843 -434,1342 7,2242 7,4488 7,6729 0,160 0,318 0,510 -1694,0 -3359,0 -5052,0 -7,-3764 -7,-7529 -7,-11315zm-41896 5c1665,0 3326,0 5047,0 0,351 0,707 0,1156 186,-148 290,-224 389,-307 2351,-1973 5951,-1819 8072,345 991,1015 1430,2269 1457,3649 39,2105 11,4214 11,6319 0,49 -11,93 -21,159 -1671,0 -3332,0 -5053,0 0,-137 0,-279 0,-422 0,-2253 0,-4510 0,-6762 0,-1178 -718,-2093 -1813,-2329 -1189,-252 -2427,317 -2866,1364 -126,295 -169,646 -169,970 -11,2241 0,4482 6,6729 0,142 0,290 0,460 -1721,0 -3371,0 -5053,0 -7,-3785 -7,-7544 -7,-11331zm-8040 -5791c861,0 1704,0 2555,0 839,0 1676,0 2543,0 0,1140 0,2269 0,3430 -1677,0 -3371,0 -5097,0 -1,-1146 -1,-2264 -1,-3430zm5113 5791c0,3786 0,7540 0,11322 -1698,0 -3376,0 -5085,0 0,-3771 0,-7535 0,-11322 1693,0 3376,0 5085,0zm-26050 -5786c137,0 269,0 400,0 1479,0 2959,11 4438,-5 318,-6 499,82 674,367 2280,3715 4570,7418 6860,11129 77,126 154,246 318,355 0,-3934 0,-7868 0,-11825 1780,0 3495,0 5239,0 0,5705 0,11387 0,17113 -329,0 -631,0 -938,0 -1303,0 -2613,-11 -3918,5 -284,6 -438,-93 -585,-328 -2307,-3725 -4619,-7452 -6932,-11173 -77,-121 -153,-242 -230,-362 -33,7 -65,17 -99,22 0,1962 0,3924 0,5885 0,1967 0,3940 0,5929 -1753,0 -3473,0 -5227,0 0,-5698 0,-11380 0,-17112zm50752 110057c0,4307 -3506,7813 -7814,7813l-46681 0c-4307,0 -7814,-3506 -7814,-7813l0 -46682c0,-4306 3508,-7813 7814,-7813l46681 0c4308,0 7814,3507 7814,7813l0 46682zm1211 -92961c-1720,0 -3413,0 -5150,0 0,-3771 0,-7545 0,-11349 -942,0 -1836,0 -2795,0 0,-525 -11,-1025 17,-1523 0,-55 203,-142 312,-142 801,-11 1600,-6 2450,-6 0,-766 0,-1512 0,-2279 1731,0 3408,0 5151,0 0,750 0,1484 0,2262 931,0 1835,0 2766,0 0,581 0,1119 0,1683 -920,0 -1813,0 -2739,0 -12,3793 -12,7557 -12,11354zm2153 -6098c110,-1595 844,-2893 2028,-3935 1771,-1556 3863,-2153 6186,-1984 2001,143 3749,882 5173,2318 1118,1123 1786,2696 1726,4077 -3232,0 -6438,0 -9737,0 50,1124 12,2203 165,3249 165,1101 1080,1737 2176,1694 1002,-39 1813,-800 1961,-1880 60,-433 71,-877 110,-1369 833,0 1665,0 2499,0 827,0 1649,0 2531,0 -65,186 -109,345 -181,493 -892,1918 -2432,3118 -4405,3721 -2866,872 -5568,504 -7952,-1381 -1595,-1262 -2427,-2932 -2280,-5003zm69701 99059c0,4307 -3507,7813 -7815,7813l-46680 0c-4307,0 -7814,-3506 -7814,-7813l0 -46682c0,-4306 3507,-7813 7814,-7813l46680 0c4308,0 7815,3507 7815,7813l0 46682z"/>
   <rect class="fil0" x="343442" y="69593" width="145942" height="45663"/>
   <rect class="fil0" x="181464" y="47762" width="150867" height="104263"/>
   <rect class="fil0" x="182136" y="180006" width="147733" height="33763"/>
   <rect class="fil0" x="181464" y="147773" width="16788" height="36485"/>
   <rect class="fil0" x="314811" y="146525" width="12149" height="37510"/>
   <rect class="fil1" x="12794" y="66009" width="507642" height="63347"/>
  </g>
  <rect class="fil0" x="12794" y="34023" width="507642" height="33032"/>
 </g>
</svg>
